<?xml version="1.0"?>
<svg xmlns="http://www.w3.org/2000/svg" width="1000" height="1000" viewBox="0 0 1083.7333 1083.7333">
 <g transform="matrix(0.47789628,0,0,0.47789628,541.86666,5.4186666)" style="fill:#000000;stroke:none">
  <path d="m 92.1086,2252.6306 c 624.06059,-50.8635 1041.7497,-511.9811 1041.7497,-1130.1109 0.074,67.2915 -5.8401,134.5795 -17.742,200.7894 29.2266,-162.5869 22.3447,-331.67514 -20.0038,-491.35209 C 1053.7575,672.25521 975.92492,521.9676 869.93749,395.22087 763.95006,268.47413 629.80776,165.26828 480.1257,95.315096 330.44364,25.361917 165.22182,-11.338583 0,-11.338583 c -165.22182,0 -330.44364,36.7005 -480.1257,106.653679 -149.68206,69.953184 -283.82436,173.159034 -389.81179,299.905774 -105.98743,126.74673 -183.82001,277.03434 -226.16661,436.73648 -21.1734,79.85107 -33.4752,162.05577 -36.8232,244.62415 -0.6223,15.347 -0.931,30.6619 -0.931,45.9382 0,618.1298 417.68911,1079.2474 1041.7497,1130.1109 0,-231.5722 0,-463.1444 0,-694.7166 -396.49785,-49.2647 -654.91135,-349.1863 -654.91135,-741.31964 0,-437.59415 309.42579,-747.019948 747.01995,-747.019948 437.59416,0 747.01995,309.425798 747.01995,747.019948 0,392.13334 -258.4135,692.05494 -654.91135,741.31964 0,231.5722 0,463.1444 0,694.7166 z" />
 <path d="m 631.67172,816.59436 a 631.67172,631.67172 0 1 0 -1263.34344,0 631.67172,631.67172 0 1 0 1263.34344,0 z" />
</g>
</svg>